<svg xmlns="http://www.w3.org/2000/svg" width="1200" height="600" viewBox="0 0 1200 600">
  <defs>
    <linearGradient id="sea" x2="0" y2="1"><stop stop-color="#397daa"/><stop offset=".45" stop-color="#1a6497"/><stop offset="1" stop-color="#123d70"/></linearGradient>
    <linearGradient id="land" x2=".3" y2="1"><stop stop-color="#b2bd99"/><stop offset=".25" stop-color="#54885d"/><stop offset=".52" stop-color="#a6a475"/><stop offset=".7" stop-color="#3f8052"/><stop offset="1" stop-color="#95a284"/></linearGradient>
  </defs>
  <path fill="url(#sea)" d="M0 0h1200v600H0z"/>
  <g fill="url(#land)" stroke="#aec39e" stroke-width="2" stroke-linejoin="round">
    <path d="m45 115 37-33 63-16 43 8 42-20 61 12 33 31 36 1 31 24-25 17-35-3-11 26-24 7-23 34-28 9-13 23 17 37-5 29-26-10-20-27-27-18-20-49-38-19-18-31-24-3-16-19-26 9-9-19z"/>
    <path d="m259 264 16 2 7 26 26 9 19 21-15 9-20-18-19-5-10-22z"/>
    <path d="m326 318 42-9 50 28 26 40-12 32-23 17-10 41-30 27-17 43-19 16-10-30 8-43-12-38-17-39-8-45z"/>
    <path d="m333 42 66-18 24 17-18 49-35 38-23-22-2-29z"/>
    <path d="m559 192 25-41 28-2 12-34 26-21 20 6-15 40 24 9-8 19 20 15-26 17-23-6-11 18-36-5-6 20-29-10z"/>
    <path d="m568 228 43-23 65 7 28 39 31 19-23 53-26 36-22 65-27 11-18-35-16-24-5-45-29-28-25-8-3-36z"/>
    <path d="m678 114 62-25 61 8 31-27 64 1 47 18 60-11 37 18 72 6 22 26-44 16-14 34-40 7-7 26-29 14-29-13-30 31-32-8-19 24-28-15-18 32-21 22-16-50-24-7-24-26-24 9-35-27-8-25-26-14z"/>
    <path d="m718 243 29-8 30 28 3 27-35-10z"/>
    <path d="m878 266 25-5 25 27 11 33 25 13-10 16-38-19-14-32z"/>
    <path d="m941 372 21 5 23 10-9 10-23-8-20-3z"/>
    <path d="m997 396 46-27 37 13 19-11 36 22 25 49-17 25-29-6-40 11-22-21-41 1-22-24z"/>
    <path d="m698 379 11 1-1 37-13 15-7-11z"/>
    <path d="m1072 229 10-12 7 14-10 28-13 6z"/>
    <path d="m1163 462 15 9-13 26-10-9z"/>
  </g>
  <g fill="#e5efeb">
    <path d="M0 0h1200v30l-90-5-60 16-90-8-80 13-100-10-120 8-110-11-130 12-90-12-110 7-80-12-100 11-40-9z"/>
    <path d="m0 556 95-9 54 13 82-20 96 17 58-5 72 14 60-14 113 12 61-20 89 7 54-13 89 12 88-9 69 18 120-9v50H0z"/>
  </g>
</svg>
